<svg height="512" viewBox="0 0 512 512" width="512" xmlns="http://www.w3.org/2000/svg"><path d="m256 64h240a0 0 0 0 1 0 0v384a0 0 0 0 1 0 0h-224a16 16 0 0 1 -16-16v-368a0 0 0 0 1 0 0z" fill="#d7e6f0" transform="matrix(-1 0 0 -1 752 512)"/><path d="m16 64h240a0 0 0 0 1 0 0v368a16 16 0 0 1 -16 16h-224a0 0 0 0 1 0 0v-384a0 0 0 0 1 0 0z" fill="#a5c3dc" transform="matrix(-1 0 0 -1 272 512)"/><circle cx="256" cy="112" fill="#f5871e" r="16"/><path d="m245.333 80h21.333a32 32 0 0 1 32 32 0 0 0 0 1 0 0h-85.333a0 0 0 0 1 0 0 32 32 0 0 1 32-32z" fill="#353744"/><path d="m248 64h16v16h-16z" fill="#55525b"/><path d="m16 416h480v32h-480z" fill="#f5871e"/><path d="m16 416h240v32h-240z" fill="#fabe19"/><path d="m314.667 246.667a12 12 0 0 1 -8.485-3.515l-34.667-34.667a12 12 0 0 1 16.97-16.97l26.182 26.185 28.848-28.848a12 12 0 0 1 16.97 16.97l-37.333 37.334a12 12 0 0 1 -8.485 3.511z" fill="#f0915a"/><path d="m314.667 246.667a12 12 0 0 1 -8.485-3.515l-37.334-37.334a12 12 0 1 1 16.97-16.97l28.849 28.852 28.848-28.848a12 12 0 0 1 16.97 16.97l-37.333 37.334a12 12 0 0 1 -8.485 3.511z" fill="#fab991"/><path d="m392 293.333h-56v16 80h40v-80h16v80h40v-80-16z" fill="#4b55a5"/><path d="m392 389.333h40a0 0 0 0 1 0 0v26.667a0 0 0 0 1 0 0h-56a0 0 0 0 1 0 0v-10.667a16 16 0 0 1 16-16z" fill="#32283c"/><path d="m336 389.333h40a0 0 0 0 1 0 0v26.667a0 0 0 0 1 0 0h-56a0 0 0 0 1 0 0v-10.667a16 16 0 0 1 16-16z" fill="#32283c"/><path d="m336 309.333h21.333v80h-21.333z" fill="#6478b9"/><path d="m392 309.333h21.333v80h-21.333z" fill="#6478b9"/><path d="m352 181.333a15.95 15.95 0 0 0 -11.315 4.688l-26.5 26.5a4 4 0 0 0 0 5.657l16.97 16.97a3.991 3.991 0 0 0 4.848.608v57.573h96v-112z" fill="#f04b37"/><path d="m408 181.333h-32a16 16 0 0 0 -16 16 16 16 0 0 0 16 16 16 16 0 0 0 16-16 16 16 0 0 1 16-16z" fill="#f0915a"/><path d="m336 122.667h64a0 0 0 0 1 0 0v58.667a0 0 0 0 1 0 0h-40a24 24 0 0 1 -24-24v-34.667a0 0 0 0 1 0 0z" fill="#f0915a"/><path d="m336 122.667h48a0 0 0 0 1 0 0v34.667a24 24 0 0 1 -24 24 24 24 0 0 1 -24-24v-34.667a0 0 0 0 1 0 0z" fill="#fab991"/><path d="m448 236v-38.667a16 16 0 0 0 -16-16 16 16 0 0 0 -16 16v38.667a4 4 0 0 0 4 4h24a4 4 0 0 0 4-4z" fill="#d7322d"/><path d="m448 325.333v-12a4 4 0 0 0 -4-4h-1.333v-69.333h-21.334v89.333a4 4 0 0 0 4 4h22.667a4 4 0 0 0 0-8z" fill="#f0915a"/><path d="m392 96h-57.333a4 4 0 0 0 -4 4v18.667a4 4 0 0 0 4 4h40a4 4 0 0 1 4 4v10.666a4 4 0 0 0 4 4h1.333v24a8 8 0 0 0 8 8h8a8 8 0 0 0 8-8v-53.333a16 16 0 0 0 -16-16z" fill="#32283c"/><g fill="#f0915a"><path d="m384 133.333h8a8 8 0 0 1 8 8 8 8 0 0 1 -8 8h-8a0 0 0 0 1 0 0v-16a0 0 0 0 1 0 0z"/><path d="m197.333 246.667a12 12 0 0 1 -8.485-3.515l-37.333-37.334a12 12 0 0 1 16.97-16.97l28.848 28.852 26.182-26.181a12 12 0 0 1 16.97 16.97l-34.667 34.667a12 12 0 0 1 -8.485 3.511z"/><path d="m197.333 246.667a12 12 0 0 1 -8.485-3.515l-37.333-37.334a12 12 0 0 1 16.97-16.97l28.848 28.852 28.849-28.848a12 12 0 0 1 16.97 16.97l-37.334 37.334a12 12 0 0 1 -8.485 3.511z"/><path d="m252 209.333h-17.333v-24h17.333a4 4 0 0 1 4 4v16a4 4 0 0 1 -4 4z"/></g><path d="m277.333 209.333h-17.333a4 4 0 0 1 -4-4v-16a4 4 0 0 1 4-4h17.333z" fill="#fab991"/><path d="m80 293.333v16 42.667h40v-42.667h16v42.667h40v-42.667-16z" fill="#32283c"/><path d="m80 389.333h56a0 0 0 0 1 0 0v26.667a0 0 0 0 1 0 0h-40a16 16 0 0 1 -16-16v-10.667a0 0 0 0 1 0 0z" fill="#4b55a5" transform="matrix(-1 0 0 -1 216 805.333)"/><path d="m136 389.333h56a0 0 0 0 1 0 0v26.667a0 0 0 0 1 0 0h-40a16 16 0 0 1 -16-16v-10.667a0 0 0 0 1 0 0z" fill="#4b55a5" transform="matrix(-1 0 0 -1 328 805.333)"/><path d="m136 309.333h21.333v42.667h-21.333z" fill="#55525b" transform="matrix(-1 0 0 -1 293.333 661.333)"/><path d="m80 309.333h21.333v42.667h-21.333z" fill="#55525b" transform="matrix(-1 0 0 -1 181.333 661.333)"/><path d="m80 352h40v37.333h-40z" fill="#f0915a" transform="matrix(-1 0 0 -1 200 741.333)"/><path d="m136 352h40v37.333h-40z" fill="#f0915a" transform="matrix(-1 0 0 -1 312 741.333)"/><path d="m136 352h21.333v37.333h-21.333z" fill="#fab991" transform="matrix(-1 0 0 -1 293.333 741.333)"/><path d="m80 352h21.333v37.333h-21.333z" fill="#fab991" transform="matrix(-1 0 0 -1 181.333 741.333)"/><path d="m197.818 212.525-26.5-26.5a15.95 15.95 0 0 0 -11.318-4.692h-80v112h96v-57.573a3.991 3.991 0 0 0 4.848-.608l16.97-16.97a4 4 0 0 0 0-5.657z" fill="#4b55a5"/><path d="m104 181.333h32a16 16 0 0 1 16 16 16 16 0 0 1 -16 16 16 16 0 0 1 -16-16 16 16 0 0 0 -16-16z" fill="#f0915a"/><path d="m136 122.667h40a0 0 0 0 1 0 0v58.667a0 0 0 0 1 0 0h-64a0 0 0 0 1 0 0v-34.667a24 24 0 0 1 24-24z" fill="#f0915a" transform="matrix(-1 0 0 -1 288 304)"/><path d="m152 122.667a24 24 0 0 1 24 24v34.667a0 0 0 0 1 0 0h-48a0 0 0 0 1 0 0v-34.667a24 24 0 0 1 24-24z" fill="#f0915a" transform="matrix(-1 0 0 -1 304 304)"/><path d="m64 236v-38.667a16 16 0 0 1 16-16 16 16 0 0 1 16 16v38.667a4 4 0 0 1 -4 4h-24a4 4 0 0 1 -4-4z" fill="#6478b9"/><path d="m69.333 240v69.333h-1.333a4 4 0 0 0 -4 4v12a4 4 0 0 0 0 8h22.667a4 4 0 0 0 4-4v-89.333z" fill="#fab991"/><path d="m112 128h8a8 8 0 0 1 8 8v37.333a0 0 0 0 1 0 0h-24a0 0 0 0 1 0 0v-37.333a8 8 0 0 1 8-8z" fill="#f04b37" transform="matrix(-1 0 0 -1 232 301.333)"/><path d="m112 133.333h8a8 8 0 0 1 8 8 8 8 0 0 1 -8 8h-8a0 0 0 0 1 0 0v-16a0 0 0 0 1 0 0z" fill="#fab991" transform="matrix(-1 0 0 -1 240 282.667)"/><path d="m200 122.667h-24v-2.667a24 24 0 0 0 -24-24h-24a24 24 0 0 0 -24 24v8h96a2.667 2.667 0 1 0 0-5.333z" fill="#32283c"/><path d="m152 96a24 24 0 0 1 24 24v2.667a0 0 0 0 1 0 0h-48a0 0 0 0 1 0 0v-2.667a24 24 0 0 1 24-24z" fill="#d7e6f0"/></svg>